<?xml version="1.0" standalone="no"?>
<!DOCTYPE svg PUBLIC "-//W3C//DTD SVG 20010904//EN"
 "http://www.w3.org/TR/2001/REC-SVG-20010904/DTD/svg10.dtd">
<svg version="1.0" xmlns="http://www.w3.org/2000/svg"
 width="192.000000pt" height="192.000000pt" viewBox="0 0 192.000000 192.000000"
 preserveAspectRatio="xMidYMid meet">
<metadata>
Created by potrace 1.14, written by Peter Selinger 2001-2017
</metadata>
<g transform="translate(0.000000,192.000000) scale(0.100000,-0.100000)"
fill="#000000" stroke="none">
<path d="M762 1899 c-292 -64 -544 -262 -670 -529 -28 -60 -62 -162 -78 -235
-4 -16 -8 -89 -9 -162 -2 -102 2 -151 17 -215 67 -291 254 -530 513 -657 213
-105 429 -126 680 -67 79 18 231 92 307 149 160 120 254 242 338 442 9 21 24
68 22 72 0 2 4 17 10 35 29 94 32 321 5 438 -65 281 -257 524 -512 649 -93 45
-130 58 -240 82 -105 22 -274 22 -383 -2z"/>
</g>
</svg>
